<svg width="16" height="10" viewBox="0 0 16 10" fill="none" xmlns="http://www.w3.org/2000/svg">
<path fill-rule="evenodd" clip-rule="evenodd" d="M1.29245 0.851609C1.57374 0.570403 1.9552 0.412429 2.35295 0.412429C2.7507 0.412429 3.13216 0.570403 3.41345 0.851609L8.35295 5.79111L13.2925 0.851609C13.4308 0.708344 13.5963 0.594071 13.7793 0.515457C13.9623 0.436844 14.1592 0.395464 14.3583 0.393733C14.5575 0.392003 14.755 0.429955 14.9394 0.505376C15.1237 0.580798 15.2912 0.692177 15.432 0.833016C15.5729 0.973855 15.6843 1.14133 15.7597 1.32568C15.8351 1.51002 15.8731 1.70754 15.8713 1.90671C15.8696 2.10588 15.8282 2.30271 15.7496 2.48572C15.671 2.66872 15.5567 2.83424 15.4134 2.97261L9.41345 8.97261C9.13216 9.25382 8.7507 9.41179 8.35295 9.41179C7.9552 9.41179 7.57374 9.25382 7.29245 8.97261L1.29245 2.97261C1.01124 2.69132 0.853271 2.30986 0.853271 1.91211C0.853271 1.51436 1.01124 1.1329 1.29245 0.851609V0.851609Z" fill="white"/>
</svg>
