<svg width="113" height="56" viewBox="0 0 113 56" fill="none" xmlns="http://www.w3.org/2000/svg">
<path d="M32.8682 46.2077C32.8682 38.1231 39.422 31.5692 47.5066 31.5692H111.25C112.148 31.5692 112.876 32.2974 112.876 33.1957V41.3282C112.876 49.4128 106.322 55.9666 98.2376 55.9666H34.4947C33.5964 55.9666 32.8682 55.2384 32.8682 54.3401V46.2077Z" fill="#A854D4"/>
<path d="M0 21.0862V0.348389H3.65961V21.0862C3.65961 22.0621 3.76804 22.8618 3.98491 23.4853C4.22888 24.0816 4.59484 24.5154 5.08279 24.7864C5.57074 25.0304 6.04513 25.1931 6.50597 25.2744C6.96681 25.3557 7.57675 25.3964 8.33578 25.3964V28.812C5.29966 28.812 3.14455 28.2292 1.87047 27.0635C0.623489 25.8979 0 23.9054 0 21.0862Z" fill="white"/>
<path d="M16.2459 28.812H12.6676V12.7097H9.33327L10.9598 9.2941H16.2459V28.812ZM12.5049 5.22787C12.1525 4.76703 11.9763 4.26553 11.9763 3.72336C11.9763 3.1812 12.1525 2.69325 12.5049 2.25952C12.8573 1.79868 13.3995 1.56826 14.1314 1.56826C14.8633 1.56826 15.4055 1.79868 15.7579 2.25952C16.1103 2.69325 16.2865 3.1812 16.2865 3.72336C16.2865 4.26553 16.1103 4.76703 15.7579 5.22787C15.4055 5.6616 14.8633 5.87847 14.1314 5.87847C13.3995 5.87847 12.8573 5.6616 12.5049 5.22787Z" fill="white"/>
<path d="M21.6813 0.348389H25.3409V19.0531C25.3409 21.1946 25.883 22.8618 26.9674 24.0545C28.0788 25.2202 29.5969 25.803 31.5216 25.803C33.5276 25.803 35.0998 25.2337 36.2384 24.0952C37.3769 22.9295 37.9462 21.2488 37.9462 19.0531C37.9462 16.9657 37.3227 15.3257 36.0757 14.1329C34.8559 12.913 33.2429 12.3031 31.2369 12.3031C29.5291 12.3031 28.0517 12.7911 26.8047 13.767V10.1073C28.2957 9.2941 29.9086 8.88748 31.6435 8.88748C34.517 8.88748 36.889 9.82271 38.7594 11.6932C40.657 13.5365 41.6058 15.9898 41.6058 19.0531C41.6058 22.2789 40.6164 24.7864 38.6375 26.5756C36.6857 28.3376 34.2188 29.2186 31.2369 29.2186C28.3906 29.2186 26.0864 28.297 24.3243 26.4536C22.5623 24.6102 21.6813 22.1434 21.6813 19.0531V0.348389Z" fill="white"/>
<path d="M55.4199 8.88748C60.0283 9.07724 62.3325 10.9884 62.3325 14.6209C62.3325 19.1479 59.3641 21.4115 53.4274 21.4115H51.7603V18.2805H53.7121C55.5283 18.2805 56.7888 18.0094 57.4937 17.4672C58.1985 16.898 58.5509 15.9627 58.5509 14.6615C58.5509 13.8212 58.2391 13.1977 57.6156 12.7911C56.9922 12.3573 56.1925 12.1405 55.2166 12.1405C53.2919 12.1405 51.7738 12.8182 50.6624 14.1736C49.5781 15.529 49.0359 17.1555 49.0359 19.0531C49.0359 21.0591 49.6187 22.6856 50.7844 23.9325C51.9771 25.1795 53.5223 25.803 55.4199 25.803C57.1277 25.803 58.5238 25.3828 59.6081 24.5425L62.0478 26.9415C60.1774 28.4596 57.9681 29.2186 55.4199 29.2186C52.3295 29.2186 49.8627 28.3105 48.0193 26.4943C46.176 24.678 45.2543 22.3332 45.2543 19.4597C45.2543 16.2609 46.1624 13.6721 47.9787 11.6932C49.7949 9.71428 52.2753 8.77905 55.4199 8.88748Z" fill="white"/>
<path d="M65.784 28.812V17.7112C65.784 14.5938 66.3668 12.4387 67.5325 11.2459C68.1018 10.6495 68.793 10.2022 69.6063 9.90403C70.4195 9.60585 71.1243 9.42964 71.7207 9.37543C72.3442 9.32121 73.1845 9.2941 74.2418 9.2941H77.8201V12.7097H73.5098C72.9677 12.7097 72.5475 12.7233 72.2493 12.7504C71.9511 12.7775 71.5987 12.8724 71.1921 13.035C70.7855 13.1977 70.4331 13.4552 70.1349 13.8076C69.6198 14.4582 69.3623 15.7594 69.3623 17.7112V28.812H65.784Z" fill="white"/>
<path d="M78.4179 12.7097L85.6965 5.43118V9.2941H91.1859V12.7097H85.6965V21.0862C85.6965 22.035 85.8456 22.8211 86.1438 23.4446C86.4691 24.0681 86.9299 24.5154 87.5263 24.7864C88.1227 25.0304 88.6784 25.1931 89.1934 25.2744C89.7356 25.3557 90.3997 25.3964 91.1859 25.3964V28.812C88.0684 28.812 85.7642 28.2156 84.2733 27.0229C82.7823 25.8301 82.0369 23.8512 82.0369 21.0862V12.7097H78.4179Z" fill="white"/>
<path d="M94.4541 9.2941H98.0324V19.5003C98.0324 21.6961 98.3713 23.2277 99.049 24.0952C99.7267 24.9627 100.974 25.3964 102.79 25.3964H107.059V9.2941H110.638V27.8361C110.638 31.2246 109.743 33.7728 107.954 35.4806C106.192 37.2156 103.413 38.083 99.6182 38.083H96.6905V34.6674H99.2523C104.213 34.6674 106.815 32.7156 107.059 28.812H103.644C100.093 28.812 97.6664 28.1885 96.3652 26.9415C95.0912 25.6946 94.4541 23.16 94.4541 19.3377V9.2941Z" fill="white"/>
<path d="M42.3277 44.2429L47.5773 46.2522V48.1344L40.8823 45.18V43.9331L42.3277 44.2429ZM47.5773 42.5989L42.3277 44.64L40.8823 44.9179V43.6711L47.5773 40.7246V42.5989Z" fill="white"/>
<path d="M56.9884 45.7836H58.5132C58.4338 46.5142 58.2247 47.1681 57.8858 47.7452C57.5469 48.3223 57.0678 48.7803 56.4483 49.1192C55.8289 49.4527 55.0558 49.6195 54.1293 49.6195C53.4516 49.6195 52.8348 49.4924 52.2788 49.2383C51.7282 48.9842 51.2543 48.6241 50.8573 48.1582C50.4602 47.687 50.1531 47.1231 49.936 46.4666C49.7242 45.8048 49.6183 45.0688 49.6183 44.2587V43.1072C49.6183 42.2971 49.7242 41.5638 49.936 40.9073C50.1531 40.2455 50.4628 39.6789 50.8652 39.2077C51.2729 38.7365 51.7626 38.3738 52.3344 38.1197C52.9062 37.8656 53.5495 37.7385 54.2643 37.7385C55.1379 37.7385 55.8765 37.9026 56.4801 38.2309C57.0837 38.5591 57.5522 39.0145 57.8858 39.5969C58.2247 40.174 58.4338 40.8437 58.5132 41.6062H56.9884C56.9142 41.0661 56.7766 40.6028 56.5754 40.2163C56.3742 39.8245 56.0883 39.5228 55.7177 39.311C55.347 39.0992 54.8626 38.9933 54.2643 38.9933C53.7507 38.9933 53.298 39.0912 52.9062 39.2871C52.5197 39.483 52.1941 39.761 51.9294 40.121C51.67 40.4811 51.4741 40.9126 51.3417 41.4156C51.2093 41.9185 51.1432 42.4771 51.1432 43.0913V44.2587C51.1432 44.8253 51.2014 45.3574 51.3179 45.8551C51.4397 46.3528 51.6223 46.7896 51.8659 47.1655C52.1094 47.5414 52.4192 47.8379 52.7951 48.055C53.171 48.2667 53.6157 48.3726 54.1293 48.3726C54.7805 48.3726 55.2994 48.2694 55.6859 48.0629C56.0724 47.8564 56.3636 47.5599 56.5595 47.1734C56.7607 46.7869 56.9037 46.3236 56.9884 45.7836Z" fill="white"/>
<path d="M59.9904 45.2594V45.0768C59.9904 44.4573 60.0804 43.8828 60.2604 43.3534C60.4404 42.8186 60.6999 42.3554 61.0387 41.9636C61.3776 41.5665 61.7879 41.2594 62.2697 41.0423C62.7515 40.8199 63.2916 40.7087 63.8898 40.7087C64.4934 40.7087 65.0361 40.8199 65.5179 41.0423C66.005 41.2594 66.418 41.5665 66.7569 41.9636C67.101 42.3554 67.3631 42.8186 67.5431 43.3534C67.7231 43.8828 67.8131 44.4573 67.8131 45.0768V45.2594C67.8131 45.8789 67.7231 46.4534 67.5431 46.9828C67.3631 47.5123 67.101 47.9755 66.7569 48.3726C66.418 48.7644 66.0077 49.0715 65.5259 49.2939C65.0494 49.511 64.5093 49.6195 63.9057 49.6195C63.3021 49.6195 62.7595 49.511 62.2776 49.2939C61.7958 49.0715 61.3829 48.7644 61.0387 48.3726C60.6999 47.9755 60.4404 47.5123 60.2604 46.9828C60.0804 46.4534 59.9904 45.8789 59.9904 45.2594ZM61.4596 45.0768V45.2594C61.4596 45.6883 61.5099 46.0933 61.6105 46.4745C61.7111 46.8504 61.862 47.184 62.0632 47.4752C62.2697 47.7664 62.5265 47.9967 62.8336 48.1661C63.1407 48.3303 63.498 48.4123 63.9057 48.4123C64.3081 48.4123 64.6602 48.3303 64.962 48.1661C65.2691 47.9967 65.5232 47.7664 65.7244 47.4752C65.9256 47.184 66.0765 46.8504 66.1771 46.4745C66.283 46.0933 66.3359 45.6883 66.3359 45.2594V45.0768C66.3359 44.6532 66.283 44.2535 66.1771 43.8775C66.0765 43.4963 65.923 43.1601 65.7165 42.8689C65.5153 42.5724 65.2611 42.3395 64.954 42.17C64.6523 42.0006 64.2975 41.9159 63.8898 41.9159C63.4875 41.9159 63.1327 42.0006 62.8256 42.17C62.5238 42.3395 62.2697 42.5724 62.0632 42.8689C61.862 43.1601 61.7111 43.4963 61.6105 43.8775C61.5099 44.2535 61.4596 44.6532 61.4596 45.0768Z" fill="white"/>
<path d="M75.072 47.7929V37.262H76.5492V49.4607H75.1991L75.072 47.7929ZM69.2903 45.2594V45.0926C69.2903 44.4361 69.3697 43.8405 69.5286 43.3057C69.6927 42.7657 69.923 42.3024 70.2195 41.9159C70.5213 41.5294 70.8787 41.2329 71.2917 41.0264C71.7099 40.8146 72.1758 40.7087 72.6894 40.7087C73.2295 40.7087 73.7007 40.804 74.1031 40.9946C74.5108 41.18 74.7914 41.3406 75.072 41.7006C75.072 42.5274 75.072 42.787 75.072 43.1827C75.2361 43.6857 75.3817 44.1271 75.4452 44.7624V45.6062C75.387 46.2363 75.072 46.9105 75.072 47.7929C75.1355 48.3726 75.0808 47.9082 75.1355 48.5235C74.8549 48.8783 74.5108 49.1509 74.1031 49.3415C73.6954 49.5268 73.2189 49.6195 72.6735 49.6195C72.1706 49.6195 71.7099 49.511 71.2917 49.2939C70.8787 49.0768 70.5213 48.7724 70.2195 48.3806C69.923 47.9888 69.6927 47.5281 69.5286 46.9987C69.3697 46.4639 69.2903 45.8842 69.2903 45.2594ZM70.7675 45.0926V45.2594C70.7675 45.6883 70.8099 46.0907 70.8946 46.4666C70.9846 46.8425 71.1222 47.1734 71.3075 47.4593C71.4929 47.7452 71.7285 47.9702 72.0144 48.1344C72.3003 48.2932 72.6418 48.3726 73.0389 48.3726C73.526 48.3726 73.9257 48.2694 74.2381 48.0629C74.5558 47.8564 74.8099 47.5837 75.0005 47.2449C75.1911 46.906 75.2706 46.5833 75.3765 46.1862L75.4452 44.7624C75.3817 44.4712 75.2615 43.6614 75.1398 43.3914C75.0233 43.1161 74.8973 42.8663 74.7067 42.6545C74.5213 42.4374 74.291 42.2653 74.0157 42.1383C73.7457 42.0112 73.4254 41.9477 73.0547 41.9477C72.6524 41.9477 72.3056 42.0324 72.0144 42.2018C71.7285 42.3659 71.4929 42.5936 71.3075 42.8848C71.1222 43.1707 70.9846 43.5043 70.8946 43.8855C70.8099 44.2614 70.7675 44.6638 70.7675 45.0926Z" fill="white"/>
<path d="M82.4023 49.6195C81.804 49.6195 81.2613 49.5189 80.7742 49.3177C80.2924 49.1112 79.8768 48.8227 79.5274 48.452C79.1832 48.0814 78.9185 47.642 78.7332 47.1337C78.5479 46.6254 78.4552 46.0695 78.4552 45.4659V45.1324C78.4552 44.4335 78.5585 43.8114 78.7649 43.266C78.9714 42.7154 79.252 42.2495 79.6068 41.8682C79.9615 41.487 80.3639 41.1985 80.8139 41.0026C81.264 40.8067 81.7299 40.7087 82.2117 40.7087C82.8259 40.7087 83.3553 40.8146 83.8001 41.0264C84.2501 41.2382 84.6181 41.5347 84.904 41.9159C85.1899 42.2918 85.4017 42.7366 85.5394 43.2501C85.677 43.7584 85.7458 44.3143 85.7458 44.9179V45.5771H79.3288V44.3779H84.2766V44.2667C84.2554 43.8855 84.176 43.5149 84.0383 43.1548C83.906 42.7948 83.6942 42.4983 83.403 42.2653C83.1118 42.0324 82.7147 41.9159 82.2117 41.9159C81.8782 41.9159 81.5711 41.9874 81.2905 42.1303C81.0098 42.268 80.7689 42.4745 80.5677 42.7498C80.3666 43.0251 80.2104 43.3613 80.0992 43.7584C79.988 44.1555 79.9324 44.6135 79.9324 45.1324V45.4659C79.9324 45.8736 79.988 46.2575 80.0992 46.6175C80.2157 46.9722 80.3824 47.2846 80.5995 47.5546C80.8219 47.8246 81.0893 48.0364 81.4016 48.19C81.7193 48.3435 82.0793 48.4203 82.4817 48.4203C83.0006 48.4203 83.4401 48.3144 83.8001 48.1026C84.1601 47.8908 84.4751 47.6076 84.7452 47.2528L85.6347 47.9597C85.4493 48.2403 85.2137 48.5076 84.9278 48.7618C84.6419 49.0159 84.2898 49.2224 83.8716 49.3812C83.4586 49.5401 82.9688 49.6195 82.4023 49.6195Z" fill="white"/>
<path d="M92.687 44.5605L87.3422 42.5671V40.7167L94.2039 43.6631V44.9179L92.687 44.5605ZM87.3422 46.276L92.7029 44.2429L94.2039 43.9252V45.1721L87.3422 48.1264V46.276Z" fill="white"/>
</svg>
