<svg width="948" height="1031" viewBox="0 0 948 1031" fill="none" xmlns="http://www.w3.org/2000/svg">
<path d="M227.52 151.072C227.52 127.456 224.578 104.072 218.861 82.2535C213.144 60.4352 204.764 40.6107 194.201 23.9117C183.637 7.21278 171.096 -6.03355 157.294 -15.071C143.492 -24.1084 128.699 -28.7599 113.76 -28.7599C98.821 -28.7599 84.0281 -24.1084 70.2261 -15.071C56.4242 -6.03355 43.8833 7.2128 33.3198 23.9118C22.7562 40.6107 14.3767 60.4353 8.6597 82.2535C2.94273 104.072 0.000242835 127.456 0.000244141 151.072L227.52 151.072Z" fill="url(#paint0_linear_581_445)"/>
<path d="M240.16 -208.592C255.099 -208.592 269.892 -203.941 283.694 -194.903C297.496 -185.866 310.037 -172.619 320.6 -155.92C331.164 -139.221 339.543 -119.397 345.26 -97.5786C350.977 -75.7604 353.92 -52.3758 353.92 -28.7599C353.92 -5.14397 350.977 18.2407 345.26 40.0589C339.543 61.8772 331.164 81.7017 320.6 98.4007C310.037 115.1 297.496 128.346 283.694 137.383C269.892 146.421 255.099 151.072 240.16 151.072L240.16 -208.592Z" fill="url(#paint1_linear_581_445)"/>
<path d="M467.68 -208.592C452.741 -208.592 437.948 -203.941 424.146 -194.903C410.344 -185.866 397.803 -172.619 387.24 -155.92C376.676 -139.221 368.297 -119.397 362.58 -97.5786C356.863 -75.7604 353.92 -52.3758 353.92 -28.7599C353.92 -5.14397 356.863 18.2407 362.58 40.0589C368.297 61.8772 376.676 81.7017 387.24 98.4007C397.803 115.1 410.344 128.346 424.146 137.383C437.948 146.421 452.741 151.072 467.68 151.072L467.68 -208.592Z" fill="url(#paint2_linear_581_445)"/>
<path d="M594.08 -208.592C609.019 -208.592 623.812 -203.941 637.614 -194.903C651.416 -185.866 663.957 -172.619 674.52 -155.92C685.084 -139.221 693.463 -119.397 699.18 -97.5786C704.897 -75.7604 707.84 -52.3758 707.84 -28.7599C707.84 -5.14397 704.897 18.2407 699.18 40.0589C693.463 61.8772 685.084 81.7017 674.52 98.4007C663.957 115.1 651.416 128.346 637.614 137.383C623.812 146.421 609.019 151.072 594.08 151.072L594.08 -208.592Z" fill="url(#paint3_linear_581_445)"/>
<path d="M480.32 -208.592C495.259 -208.592 510.052 -203.941 523.854 -194.903C537.656 -185.866 550.197 -172.619 560.76 -155.92C571.324 -139.221 579.703 -119.397 585.42 -97.5786C591.137 -75.7604 594.08 -52.3758 594.08 -28.7599C594.08 -5.14397 591.137 18.2407 585.42 40.0589C579.703 61.8772 571.324 81.7017 560.76 98.4007C550.197 115.1 537.656 128.346 523.854 137.383C510.052 146.421 495.259 151.072 480.32 151.072L480.32 -208.592Z" fill="url(#paint4_linear_581_445)"/>
<path d="M948 151.072C948 127.456 945.058 104.072 939.341 82.2535C933.624 60.4352 925.244 40.6107 914.681 23.9117C904.117 7.21278 891.576 -6.03355 877.774 -15.071C863.972 -24.1084 849.179 -28.7599 834.24 -28.7599C819.301 -28.7599 804.508 -24.1084 790.706 -15.071C776.904 -6.03355 764.363 7.2128 753.8 23.9118C743.236 40.6107 734.857 60.4353 729.14 82.2535C723.423 104.072 720.48 127.456 720.48 151.072L948 151.072Z" fill="url(#paint5_linear_581_445)"/>
<path d="M0.000254086 230.998C14.9394 230.998 29.7323 235.649 43.5343 244.687C57.3363 253.724 69.8771 266.97 80.4407 283.669C91.0043 300.368 99.3838 320.193 105.101 342.011C110.818 363.829 113.76 387.214 113.76 410.83C113.76 434.446 110.818 457.83 105.101 479.649C99.3838 501.467 91.0043 521.291 80.4407 537.99C69.8771 554.689 57.3363 567.936 43.5343 576.973C29.7323 586.01 14.9394 590.662 0.000244141 590.662L0.000254086 230.998Z" fill="url(#paint6_linear_581_445)"/>
<path d="M227.52 230.998C212.581 230.998 197.788 235.649 183.986 244.687C170.184 253.724 157.643 266.97 147.08 283.669C136.516 300.368 128.136 320.193 122.42 342.011C116.703 363.829 113.76 387.214 113.76 410.83C113.76 434.446 116.703 457.831 122.42 479.649C128.136 501.467 136.516 521.292 147.08 537.991C157.643 554.689 170.184 567.936 183.986 576.973C197.788 586.011 212.581 590.662 227.52 590.662L227.52 230.998Z" fill="url(#paint7_linear_581_445)"/>
<path d="M467.68 230.998C467.68 254.613 464.737 277.998 459.02 299.816C453.303 321.635 444.924 341.459 434.36 358.158C423.797 374.857 411.256 388.103 397.454 397.141C383.652 406.178 368.859 410.83 353.92 410.83C338.981 410.83 324.188 406.178 310.386 397.141C296.584 388.103 284.043 374.857 273.479 358.158C262.916 341.459 254.536 321.635 248.819 299.816C243.102 277.998 240.16 254.613 240.16 230.998L467.68 230.998Z" fill="url(#paint8_linear_581_445)"/>
<path d="M467.68 590.662C467.68 567.046 464.737 543.662 459.02 521.843C453.303 500.025 444.924 480.201 434.36 463.502C423.797 446.803 411.256 433.556 397.454 424.519C383.652 415.481 368.859 410.83 353.92 410.83C338.981 410.83 324.188 415.481 310.386 424.519C296.584 433.556 284.043 446.803 273.479 463.502C262.916 480.201 254.536 500.025 248.819 521.843C243.102 543.662 240.16 567.046 240.16 590.662L467.68 590.662Z" fill="url(#paint9_linear_581_445)"/>
<path d="M707.84 410.829C707.84 387.213 704.897 363.829 699.18 342.01C693.463 320.192 685.084 300.368 674.52 283.669C663.957 266.97 651.416 253.723 637.614 244.686C623.812 235.648 609.019 230.997 594.08 230.997C579.141 230.997 564.348 235.648 550.546 244.686C536.744 253.723 524.203 266.97 513.639 283.669C503.076 300.368 494.696 320.192 488.979 342.01C483.262 363.829 480.32 387.213 480.32 410.829L707.84 410.829Z" fill="url(#paint10_linear_581_445)"/>
<path d="M707.84 590.662C707.84 567.046 704.897 543.662 699.18 521.843C693.463 500.025 685.084 480.201 674.52 463.502C663.957 446.803 651.416 433.556 637.614 424.519C623.812 415.481 609.019 410.83 594.08 410.83C579.141 410.83 564.348 415.481 550.546 424.519C536.744 433.556 524.203 446.803 513.639 463.502C503.076 480.201 494.696 500.025 488.979 521.843C483.262 543.662 480.32 567.046 480.32 590.662L707.84 590.662Z" fill="url(#paint11_linear_581_445)"/>
<path d="M720.48 230.998C735.419 230.998 750.212 235.649 764.014 244.687C777.816 253.724 790.357 266.97 800.921 283.669C811.484 300.368 819.864 320.193 825.581 342.011C831.298 363.829 834.24 387.214 834.24 410.83C834.24 434.446 831.298 457.831 825.581 479.649C819.864 501.467 811.484 521.292 800.921 537.991C790.357 554.689 777.816 567.936 764.014 576.973C750.212 586.011 735.419 590.662 720.48 590.662L720.48 230.998Z" fill="url(#paint12_linear_581_445)"/>
<path d="M948 230.998C933.06 230.998 918.267 235.649 904.465 244.687C890.663 253.724 878.123 266.97 867.559 283.669C856.995 300.368 848.616 320.193 842.899 342.011C837.182 363.829 834.24 387.214 834.24 410.83C834.24 434.446 837.182 457.831 842.899 479.649C848.616 501.467 856.995 521.292 867.559 537.991C878.123 554.689 890.663 567.936 904.465 576.973C918.267 586.011 933.06 590.662 948 590.662L948 230.998Z" fill="url(#paint13_linear_581_445)"/>
<path d="M113.76 670.588C98.8208 670.588 84.0279 675.239 70.2259 684.277C56.424 693.314 43.8831 706.56 33.3196 723.259C22.756 739.958 14.3765 759.783 8.65951 781.601C2.94254 803.419 4.57764e-05 826.804 4.57764e-05 850.42C4.57764e-05 874.036 2.94254 897.42 8.65951 919.239C14.3765 941.057 22.756 960.881 33.3196 977.58C43.8832 994.279 56.424 1007.53 70.226 1016.56C84.028 1025.6 98.8208 1030.25 113.76 1030.25L113.76 670.588Z" fill="url(#paint14_linear_581_445)"/>
<path d="M227.52 670.588C212.581 670.588 197.788 675.239 183.986 684.277C170.184 693.314 157.643 706.56 147.08 723.259C136.516 739.958 128.136 759.783 122.42 781.601C116.703 803.419 113.76 826.804 113.76 850.42C113.76 874.036 116.703 897.42 122.42 919.239C128.136 941.057 136.516 960.881 147.08 977.58C157.643 994.279 170.184 1007.53 183.986 1016.56C197.788 1025.6 212.581 1030.25 227.52 1030.25L227.52 670.588Z" fill="url(#paint15_linear_581_445)"/>
<path d="M467.68 670.587C467.68 694.203 464.737 717.587 459.02 739.406C453.303 761.224 444.924 781.048 434.36 797.747C423.797 814.446 411.256 827.693 397.454 836.73C383.652 845.768 368.859 850.419 353.92 850.419C338.981 850.419 324.188 845.768 310.386 836.73C296.584 827.693 284.043 814.446 273.479 797.747C262.916 781.048 254.536 761.224 248.819 739.406C243.102 717.587 240.16 694.203 240.16 670.587L467.68 670.587Z" fill="url(#paint16_linear_581_445)"/>
<path d="M467.68 1030.25C467.68 1006.64 464.737 983.251 459.02 961.433C453.303 939.615 444.924 919.79 434.36 903.091C423.797 886.392 411.256 873.146 397.454 864.109C383.652 855.071 368.859 850.42 353.92 850.42C338.981 850.42 324.188 855.071 310.386 864.109C296.584 873.146 284.043 886.392 273.479 903.091C262.916 919.79 254.536 939.615 248.819 961.433C243.102 983.251 240.16 1006.64 240.16 1030.25L467.68 1030.25Z" fill="url(#paint17_linear_581_445)"/>
<path d="M480.32 670.588C495.259 670.588 510.052 675.239 523.854 684.277C537.656 693.314 550.197 706.56 560.76 723.259C571.324 739.958 579.703 759.783 585.42 781.601C591.137 803.419 594.08 826.804 594.08 850.42C594.08 874.036 591.137 897.42 585.42 919.239C579.703 941.057 571.324 960.881 560.76 977.58C550.197 994.279 537.656 1007.53 523.854 1016.56C510.052 1025.6 495.259 1030.25 480.32 1030.25L480.32 670.588Z" fill="url(#paint18_linear_581_445)"/>
<path d="M707.84 670.588C692.901 670.588 678.108 675.239 664.306 684.277C650.504 693.314 637.963 706.56 627.4 723.259C616.836 739.958 608.457 759.783 602.74 781.601C597.023 803.419 594.08 826.804 594.08 850.42C594.08 874.036 597.023 897.42 602.74 919.239C608.457 941.057 616.836 960.881 627.4 977.58C637.963 994.279 650.504 1007.53 664.306 1016.56C678.108 1025.6 692.901 1030.25 707.84 1030.25L707.84 670.588Z" fill="url(#paint19_linear_581_445)"/>
<path d="M948 850.419C948 826.803 945.058 803.418 939.341 781.6C933.624 759.782 925.244 739.957 914.681 723.258C904.117 706.559 891.576 693.313 877.774 684.276C863.972 675.238 849.179 670.587 834.24 670.587C819.301 670.587 804.508 675.238 790.706 684.276C776.904 693.313 764.363 706.559 753.8 723.258C743.236 739.957 734.857 759.782 729.14 781.6C723.423 803.418 720.48 826.803 720.48 850.419L948 850.419Z" fill="url(#paint20_linear_581_445)"/>
<path d="M948 1030.25C948 1006.64 945.058 983.251 939.341 961.433C933.624 939.615 925.244 919.79 914.681 903.091C904.117 886.392 891.576 873.146 877.774 864.109C863.972 855.071 849.179 850.42 834.24 850.42C819.301 850.42 804.508 855.071 790.706 864.109C776.904 873.146 764.363 886.392 753.8 903.091C743.236 919.79 734.857 939.615 729.14 961.433C723.423 983.251 720.48 1006.64 720.48 1030.25L948 1030.25Z" fill="url(#paint21_linear_581_445)"/>
<defs>
<linearGradient id="paint0_linear_581_445" x1="113.76" y1="151.072" x2="113.76" y2="-28.7599" gradientUnits="userSpaceOnUse">
<stop/>
<stop offset="1" stop-color="#9D9D9D" stop-opacity="0"/>
</linearGradient>
<linearGradient id="paint1_linear_581_445" x1="240.16" y1="-28.7599" x2="353.92" y2="-28.7599" gradientUnits="userSpaceOnUse">
<stop/>
<stop offset="1" stop-color="#9D9D9D" stop-opacity="0"/>
</linearGradient>
<linearGradient id="paint2_linear_581_445" x1="467.68" y1="-28.7599" x2="353.92" y2="-28.7599" gradientUnits="userSpaceOnUse">
<stop/>
<stop offset="1" stop-color="#9D9D9D" stop-opacity="0"/>
</linearGradient>
<linearGradient id="paint3_linear_581_445" x1="594.08" y1="-28.7599" x2="707.84" y2="-28.7599" gradientUnits="userSpaceOnUse">
<stop/>
<stop offset="1" stop-color="#9D9D9D" stop-opacity="0"/>
</linearGradient>
<linearGradient id="paint4_linear_581_445" x1="480.32" y1="-28.7599" x2="594.08" y2="-28.7599" gradientUnits="userSpaceOnUse">
<stop/>
<stop offset="1" stop-color="#9D9D9D" stop-opacity="0"/>
</linearGradient>
<linearGradient id="paint5_linear_581_445" x1="834.24" y1="151.072" x2="834.24" y2="-28.7599" gradientUnits="userSpaceOnUse">
<stop/>
<stop offset="1" stop-color="#9D9D9D" stop-opacity="0"/>
</linearGradient>
<linearGradient id="paint6_linear_581_445" x1="0.000244141" y1="410.83" x2="113.76" y2="410.83" gradientUnits="userSpaceOnUse">
<stop/>
<stop offset="1" stop-color="#9D9D9D" stop-opacity="0"/>
</linearGradient>
<linearGradient id="paint7_linear_581_445" x1="227.52" y1="410.83" x2="113.76" y2="410.83" gradientUnits="userSpaceOnUse">
<stop/>
<stop offset="1" stop-color="#9D9D9D" stop-opacity="0"/>
</linearGradient>
<linearGradient id="paint8_linear_581_445" x1="353.92" y1="230.998" x2="353.92" y2="410.83" gradientUnits="userSpaceOnUse">
<stop/>
<stop offset="1" stop-color="#9D9D9D" stop-opacity="0"/>
</linearGradient>
<linearGradient id="paint9_linear_581_445" x1="353.92" y1="590.662" x2="353.92" y2="410.83" gradientUnits="userSpaceOnUse">
<stop/>
<stop offset="1" stop-color="#9D9D9D" stop-opacity="0"/>
</linearGradient>
<linearGradient id="paint10_linear_581_445" x1="594.08" y1="410.829" x2="594.08" y2="230.997" gradientUnits="userSpaceOnUse">
<stop/>
<stop offset="1" stop-color="#9D9D9D" stop-opacity="0"/>
</linearGradient>
<linearGradient id="paint11_linear_581_445" x1="594.08" y1="590.662" x2="594.08" y2="410.83" gradientUnits="userSpaceOnUse">
<stop/>
<stop offset="1" stop-color="#9D9D9D" stop-opacity="0"/>
</linearGradient>
<linearGradient id="paint12_linear_581_445" x1="720.48" y1="410.83" x2="834.24" y2="410.83" gradientUnits="userSpaceOnUse">
<stop/>
<stop offset="1" stop-color="#9D9D9D" stop-opacity="0"/>
</linearGradient>
<linearGradient id="paint13_linear_581_445" x1="948" y1="410.83" x2="834.24" y2="410.83" gradientUnits="userSpaceOnUse">
<stop/>
<stop offset="1" stop-color="#9D9D9D" stop-opacity="0"/>
</linearGradient>
<linearGradient id="paint14_linear_581_445" x1="113.76" y1="850.42" x2="4.57764e-05" y2="850.42" gradientUnits="userSpaceOnUse">
<stop/>
<stop offset="1" stop-color="#9D9D9D" stop-opacity="0"/>
</linearGradient>
<linearGradient id="paint15_linear_581_445" x1="227.52" y1="850.42" x2="113.76" y2="850.42" gradientUnits="userSpaceOnUse">
<stop/>
<stop offset="1" stop-color="#9D9D9D" stop-opacity="0"/>
</linearGradient>
<linearGradient id="paint16_linear_581_445" x1="353.92" y1="670.587" x2="353.92" y2="850.419" gradientUnits="userSpaceOnUse">
<stop/>
<stop offset="1" stop-color="#9D9D9D" stop-opacity="0"/>
</linearGradient>
<linearGradient id="paint17_linear_581_445" x1="353.92" y1="1030.25" x2="353.92" y2="850.42" gradientUnits="userSpaceOnUse">
<stop/>
<stop offset="1" stop-color="#9D9D9D" stop-opacity="0"/>
</linearGradient>
<linearGradient id="paint18_linear_581_445" x1="480.32" y1="850.42" x2="594.08" y2="850.42" gradientUnits="userSpaceOnUse">
<stop/>
<stop offset="1" stop-color="#9D9D9D" stop-opacity="0"/>
</linearGradient>
<linearGradient id="paint19_linear_581_445" x1="707.84" y1="850.42" x2="594.08" y2="850.42" gradientUnits="userSpaceOnUse">
<stop/>
<stop offset="1" stop-color="#9D9D9D" stop-opacity="0"/>
</linearGradient>
<linearGradient id="paint20_linear_581_445" x1="834.24" y1="850.419" x2="834.24" y2="670.587" gradientUnits="userSpaceOnUse">
<stop/>
<stop offset="1" stop-color="#9D9D9D" stop-opacity="0"/>
</linearGradient>
<linearGradient id="paint21_linear_581_445" x1="834.24" y1="1030.25" x2="834.24" y2="850.42" gradientUnits="userSpaceOnUse">
<stop/>
<stop offset="1" stop-color="#9D9D9D" stop-opacity="0"/>
</linearGradient>
</defs>
</svg>
