<svg width="175" height="91" viewBox="0 0 175 91" fill="none" xmlns="http://www.w3.org/2000/svg">
<g filter="url(#filter0_d_581_488)">
<path d="M52.44 68.2022C52.44 56.2874 62.0989 46.6285 74.0137 46.6285H167.956C169.28 46.6285 170.353 47.7017 170.353 49.0256V61.0109C170.353 72.9257 160.694 82.5846 148.779 82.5846H54.8371C53.5132 82.5846 52.44 81.5114 52.44 80.1875V68.2022Z" fill="#A854D4"/>
<path d="M4 31.1789V0.616211H9.39341V31.1789C9.39341 32.6171 9.55322 33.7957 9.87283 34.7146C10.2324 35.5935 10.7717 36.2327 11.4909 36.6322C12.21 36.9918 12.9091 37.2315 13.5883 37.3513C14.2675 37.4712 15.1664 37.5311 16.285 37.5311V42.565C11.8105 42.565 8.63434 41.706 6.75663 39.9881C4.91888 38.2702 4 35.3338 4 31.1789Z" fill="white"/>
<path d="M27.9426 42.565H22.6691V18.834H17.7551L20.1521 13.8001H27.9426V42.565ZM22.4294 7.80743C21.91 7.12826 21.6503 6.38916 21.6503 5.59014C21.6503 4.79111 21.91 4.07199 22.4294 3.43277C22.9487 2.7536 23.7478 2.41402 24.8264 2.41402C25.9051 2.41402 26.7041 2.7536 27.2235 3.43277C27.7429 4.07199 28.0026 4.79111 28.0026 5.59014C28.0026 6.38916 27.7429 7.12826 27.2235 7.80743C26.7041 8.44665 25.9051 8.76626 24.8264 8.76626C23.7478 8.76626 22.9487 8.44665 22.4294 7.80743Z" fill="white"/>
<path d="M35.9532 0.616211H41.3466V28.1825C41.3466 31.3387 42.1456 33.7957 43.7436 35.5535C45.3816 37.2714 47.6189 38.1304 50.4554 38.1304C53.4118 38.1304 55.729 37.2914 57.407 35.6135C59.0849 33.8956 59.9239 31.4186 59.9239 28.1825C59.9239 25.1063 59.005 22.6893 57.1672 20.9314C55.3694 19.1336 52.9923 18.2347 50.036 18.2347C47.519 18.2347 45.3417 18.9538 43.5039 20.3921V14.9986C45.7013 13.8001 48.0783 13.2008 50.6352 13.2008C54.8701 13.2008 58.3658 14.5792 61.1224 17.3358C63.919 20.0525 65.3173 23.6681 65.3173 28.1825C65.3173 32.9367 63.8591 36.6322 60.9426 39.269C58.0662 41.8658 54.4306 43.1643 50.036 43.1643C45.8411 43.1643 42.4452 41.8059 39.8484 39.0892C37.2516 36.3725 35.9532 32.737 35.9532 28.1825V0.616211Z" fill="white"/>
<path d="M85.676 13.2008C92.4677 13.4805 95.8636 16.2971 95.8636 21.6505C95.8636 28.3224 91.4889 31.6583 82.7396 31.6583H80.2826V27.0439H83.1591C85.8358 27.0439 87.6936 26.6444 88.7323 25.8454C89.771 25.0064 90.2904 23.6281 90.2904 21.7105C90.2904 20.472 89.8309 19.5531 88.9121 18.9538C87.9932 18.3146 86.8146 17.995 85.3764 17.995C82.5398 17.995 80.3026 18.9938 78.6646 20.9913C77.0665 22.9889 76.2675 25.386 76.2675 28.1825C76.2675 31.1389 77.1265 33.536 78.8444 35.3738C80.6022 37.2115 82.8794 38.1304 85.676 38.1304C88.1929 38.1304 90.2504 37.5112 91.8485 36.2727L95.4441 39.8083C92.6875 42.0456 89.4314 43.1643 85.676 43.1643C81.1216 43.1643 77.486 41.8259 74.7693 39.1492C72.0527 36.4724 70.6943 33.0166 70.6943 28.7818C70.6943 24.0676 72.0327 20.2522 74.7094 17.3358C77.3861 14.4194 81.0417 13.041 85.676 13.2008Z" fill="white"/>
<path d="M100.95 42.565V26.205C100.95 21.6106 101.809 18.4345 103.527 16.6766C104.366 15.7977 105.385 15.1385 106.583 14.699C107.782 14.2596 108.821 13.9999 109.7 13.92C110.619 13.8401 111.857 13.8001 113.415 13.8001H118.689V18.834H112.336C111.537 18.834 110.918 18.8539 110.479 18.8939C110.039 18.9338 109.52 19.0737 108.921 19.3134C108.321 19.5531 107.802 19.9326 107.362 20.452C106.603 21.4108 106.224 23.3285 106.224 26.205V42.565H100.95Z" fill="white"/>
<path d="M119.57 18.834L130.297 8.10706V13.8001H138.387V18.834H130.297V31.1789C130.297 32.5772 130.516 33.7358 130.956 34.6546C131.435 35.5735 132.114 36.2327 132.993 36.6322C133.872 36.9918 134.691 37.2315 135.45 37.3513C136.249 37.4712 137.228 37.5311 138.387 37.5311V42.565C133.792 42.565 130.397 41.6861 128.199 39.9282C126.002 38.1704 124.903 35.2539 124.903 31.1789V18.834H119.57Z" fill="white"/>
<path d="M143.203 13.8001H148.477V28.8417C148.477 32.0778 148.976 34.335 149.975 35.6135C150.974 36.8919 152.812 37.5311 155.488 37.5311H161.781V13.8001H167.054V41.1267C167.054 46.1206 165.736 49.8761 163.099 52.393C160.502 54.9499 156.407 56.2283 150.814 56.2283H146.499V51.1944H150.275C157.586 51.1944 161.421 48.318 161.781 42.565H156.747C151.513 42.565 147.938 41.6461 146.02 39.8083C144.142 37.9706 143.203 34.2352 143.203 28.602V13.8001Z" fill="white"/>
<path d="M66.3812 65.3065L74.1178 68.2677V71.0417L64.251 66.6876V64.85L66.3812 65.3065ZM74.1178 62.8836L66.3812 65.8917L64.251 66.3013V64.4637L74.1178 60.1214V62.8836Z" fill="white"/>
<path d="M87.9876 67.5771H90.2349C90.1178 68.6539 89.8096 69.6176 89.3102 70.4681C88.8108 71.3187 88.1046 71.9936 87.1917 72.493C86.2788 72.9846 85.1395 73.2304 83.774 73.2304C82.7752 73.2304 81.8662 73.0431 81.0469 72.6686C80.2354 72.294 79.537 71.7634 78.9518 71.0768C78.3665 70.3823 77.914 69.5513 77.594 68.5837C77.2819 67.6083 77.1259 66.5237 77.1259 65.3299V63.6327C77.1259 62.4389 77.2819 61.3582 77.594 60.3906C77.914 59.4152 78.3704 58.5803 78.9635 57.8858C79.5643 57.1914 80.2861 56.6569 81.1288 56.2823C81.9715 55.9078 82.9196 55.7205 83.973 55.7205C85.2605 55.7205 86.349 55.9624 87.2385 56.4462C88.1281 56.93 88.8186 57.601 89.3102 58.4594C89.8096 59.3099 90.1178 60.297 90.2349 61.4206H87.9876C87.8784 60.6247 87.6755 59.9419 87.379 59.3723C87.0825 58.7949 86.6611 58.3501 86.1149 58.038C85.5687 57.7259 84.8547 57.5698 83.973 57.5698C83.2161 57.5698 82.5489 57.7142 81.9715 58.0029C81.4019 58.2916 80.922 58.7013 80.5319 59.2319C80.1495 59.7625 79.8608 60.3984 79.6657 61.1397C79.4707 61.881 79.3731 62.7042 79.3731 63.6093V65.3299C79.3731 66.1648 79.459 66.949 79.6306 67.6825C79.8101 68.416 80.0793 69.0597 80.4382 69.6137C80.7972 70.1677 81.2536 70.6047 81.8076 70.9246C82.3617 71.2367 83.0171 71.3928 83.774 71.3928C84.7338 71.3928 85.4985 71.2406 86.0681 70.9363C86.6377 70.632 87.0669 70.195 87.3556 69.6254C87.6521 69.0558 87.8628 68.373 87.9876 67.5771Z" fill="white"/>
<path d="M92.4119 66.8046V66.5354C92.4119 65.6225 92.5445 64.7759 92.8098 63.9956C93.0751 63.2075 93.4575 62.5247 93.9569 61.9473C94.4563 61.3621 95.061 60.9095 95.7711 60.5896C96.4811 60.2618 97.277 60.098 98.1588 60.098C99.0483 60.098 99.8481 60.2618 100.558 60.5896C101.276 60.9095 101.885 61.3621 102.384 61.9473C102.891 62.5247 103.278 63.2075 103.543 63.9956C103.808 64.7759 103.941 65.6225 103.941 66.5354V66.8046C103.941 67.7176 103.808 68.5642 103.543 69.3445C103.278 70.1248 102.891 70.8076 102.384 71.3928C101.885 71.9702 101.28 72.4228 100.57 72.7505C99.8676 73.0704 99.0717 73.2304 98.1822 73.2304C97.2926 73.2304 96.4928 73.0704 95.7828 72.7505C95.0727 72.4228 94.4641 71.9702 93.9569 71.3928C93.4575 70.8076 93.0751 70.1248 92.8098 69.3445C92.5445 68.5642 92.4119 67.7176 92.4119 66.8046ZM94.5772 66.5354V66.8046C94.5772 67.4367 94.6513 68.0336 94.7996 68.5954C94.9478 69.1494 95.1702 69.641 95.4667 70.0702C95.7711 70.4993 96.1495 70.8388 96.6021 71.0885C97.0547 71.3304 97.5814 71.4513 98.1822 71.4513C98.7752 71.4513 99.2941 71.3304 99.7389 71.0885C100.191 70.8388 100.566 70.4993 100.863 70.0702C101.159 69.641 101.381 69.1494 101.53 68.5954C101.686 68.0336 101.764 67.4367 101.764 66.8046V66.5354C101.764 65.9112 101.686 65.3221 101.53 64.7681C101.381 64.2062 101.155 63.7108 100.851 63.2816C100.554 62.8446 100.18 62.5013 99.7272 62.2516C99.2824 62.0019 98.7596 61.8771 98.1588 61.8771C97.5657 61.8771 97.0429 62.0019 96.5904 62.2516C96.1456 62.5013 95.7711 62.8446 95.4667 63.2816C95.1702 63.7108 94.9478 64.2062 94.7996 64.7681C94.6513 65.3221 94.5772 65.9112 94.5772 66.5354Z" fill="white"/>
<path d="M114.639 70.5384V55.0183H116.816V72.9963H114.826L114.639 70.5384ZM106.118 66.8046V66.5588C106.118 65.5913 106.235 64.7134 106.469 63.9253C106.711 63.1294 107.05 62.4467 107.487 61.8771C107.932 61.3074 108.459 60.8705 109.067 60.5662C109.684 60.254 110.37 60.098 111.127 60.098C111.923 60.098 112.618 60.2384 113.211 60.5193C113.812 60.7925 114.225 61.0292 114.639 61.5598C114.639 62.7783 114.639 63.1609 114.639 63.744C114.881 64.4853 115.095 65.1358 115.189 66.0722V67.3158C115.103 68.2443 114.639 69.2379 114.639 70.5384C114.732 71.3928 114.652 70.7084 114.732 71.6152C114.319 72.138 113.812 72.5398 113.211 72.8207C112.61 73.0938 111.908 73.2304 111.104 73.2304C110.363 73.2304 109.684 73.0704 109.067 72.7505C108.459 72.4306 107.932 71.9819 107.487 71.4045C107.05 70.8271 106.711 70.1482 106.469 69.3679C106.235 68.5798 106.118 67.7254 106.118 66.8046ZM108.295 66.5588V66.8046C108.295 67.4367 108.357 68.0297 108.482 68.5837C108.615 69.1377 108.818 69.6254 109.091 70.0468C109.364 70.4681 109.711 70.7998 110.132 71.0417C110.554 71.2757 111.057 71.3928 111.642 71.3928C112.36 71.3928 112.949 71.2406 113.41 70.9363C113.878 70.632 114.252 70.2301 114.533 69.7308C114.814 69.2314 114.931 68.7557 115.087 68.1704L115.189 66.0722C115.095 65.643 114.918 64.4495 114.739 64.0516C114.567 63.6458 114.381 63.2777 114.1 62.9656C113.827 62.6457 113.488 62.3921 113.082 62.2048C112.684 62.0175 112.212 61.9239 111.666 61.9239C111.073 61.9239 110.562 62.0487 110.132 62.2984C109.711 62.5403 109.364 62.8758 109.091 63.305C108.818 63.7264 108.615 64.218 108.482 64.7798C108.357 65.3338 108.295 65.9268 108.295 66.5588Z" fill="white"/>
<path d="M125.442 73.2304C124.56 73.2304 123.76 73.0821 123.042 72.7856C122.332 72.4813 121.72 72.056 121.205 71.5098C120.698 70.9636 120.307 70.316 120.034 69.5669C119.761 68.8178 119.625 67.9985 119.625 67.109V66.6174C119.625 65.5874 119.777 64.6705 120.081 63.8668C120.386 63.0553 120.799 62.3687 121.322 61.8068C121.845 61.245 122.438 60.8198 123.101 60.5311C123.764 60.2423 124.451 60.098 125.161 60.098C126.066 60.098 126.846 60.254 127.502 60.5662C128.165 60.8783 128.707 61.3152 129.129 61.8771C129.55 62.4311 129.862 63.0865 130.065 63.8434C130.268 64.5925 130.369 65.4118 130.369 66.3013V67.2728H120.912V65.5054H128.204V65.3416C128.173 64.7798 128.056 64.2336 127.853 63.703C127.658 63.1724 127.346 62.7354 126.917 62.3921C126.487 62.0487 125.902 61.8771 125.161 61.8771C124.669 61.8771 124.217 61.9824 123.803 62.1931C123.39 62.396 123.035 62.7003 122.738 63.106C122.442 63.5118 122.211 64.0073 122.048 64.5925C121.884 65.1777 121.802 65.8527 121.802 66.6174V67.109C121.802 67.7098 121.884 68.2755 122.048 68.8061C122.219 69.3289 122.465 69.7893 122.785 70.1872C123.113 70.5852 123.507 70.8973 123.967 71.1236C124.435 71.3499 124.966 71.463 125.559 71.463C126.324 71.463 126.971 71.307 127.502 70.9948C128.032 70.6827 128.497 70.2653 128.895 69.7425L130.206 70.7842C129.932 71.1977 129.585 71.5918 129.164 71.9663C128.743 72.3408 128.224 72.6452 127.607 72.8793C126.999 73.1133 126.277 73.2304 125.442 73.2304Z" fill="white"/>
<path d="M140.599 65.7746L132.722 62.8368V60.1097L142.835 64.452V66.3013L140.599 65.7746ZM132.722 68.3028L140.623 65.3065L142.835 64.8383V66.6759L132.722 71.0299V68.3028Z" fill="white"/>
</g>
<defs>
<filter id="filter0_d_581_488" x="0" y="0.616211" width="174.353" height="89.9684" filterUnits="userSpaceOnUse" color-interpolation-filters="sRGB">
<feFlood flood-opacity="0" result="BackgroundImageFix"/>
<feColorMatrix in="SourceAlpha" type="matrix" values="0 0 0 0 0 0 0 0 0 0 0 0 0 0 0 0 0 0 127 0" result="hardAlpha"/>
<feOffset dy="4"/>
<feGaussianBlur stdDeviation="2"/>
<feComposite in2="hardAlpha" operator="out"/>
<feColorMatrix type="matrix" values="0 0 0 0 0 0 0 0 0 0 0 0 0 0 0 0 0 0 0.25 0"/>
<feBlend mode="normal" in2="BackgroundImageFix" result="effect1_dropShadow_581_488"/>
<feBlend mode="normal" in="SourceGraphic" in2="effect1_dropShadow_581_488" result="shape"/>
</filter>
</defs>
</svg>