<svg width="30" height="31" viewBox="0 0 30 31" fill="none" xmlns="http://www.w3.org/2000/svg">
<path d="M19.0621 20.5515L21.1621 18.4515C21.4432 18.1703 21.8007 17.9778 22.1901 17.8978C22.5796 17.8178 22.9839 17.8539 23.3531 18.0015L25.9106 19.0252C26.2875 19.1761 26.6106 19.4364 26.8382 19.7726C27.0658 20.1088 27.1875 20.5055 27.1875 20.9115V25.5624C27.1881 25.8389 27.1324 26.1125 27.0236 26.3667C26.9148 26.6208 26.7553 26.85 26.5549 27.0404C26.3544 27.2308 26.1172 27.3782 25.8578 27.4737C25.5984 27.5692 25.3222 27.6108 25.0462 27.5959C7.11933 26.4802 3.49871 11.2965 2.82652 5.48212C2.79396 5.19786 2.82196 4.90994 2.90866 4.63728C2.99536 4.36462 3.1388 4.1134 3.32955 3.90016C3.52031 3.68691 3.75405 3.51647 4.01539 3.40003C4.27674 3.2836 4.55978 3.22382 4.84589 3.22462H9.41433C9.82033 3.2246 10.217 3.34624 10.5532 3.57384C10.8895 3.80143 11.1498 4.12454 11.3006 4.50149L12.3234 7.05899C12.471 7.42816 12.507 7.83252 12.4271 8.22196C12.3471 8.61141 12.1546 8.96883 11.8734 9.24993L9.77339 11.3499C9.77339 11.3499 10.9378 19.5362 19.0621 20.5515Z" fill="url(#paint0_linear_581_513)"/>
<path d="M18.75 4.16211V6.03711H23.0494L16.875 12.2115L18.2006 13.5371L24.375 7.36273V11.6621H26.25V4.16211H18.75Z" fill="url(#paint1_linear_581_513)"/>
<defs>
<linearGradient id="paint0_linear_581_513" x1="2.81335" y1="3.22461" x2="29.945" y2="23.9972" gradientUnits="userSpaceOnUse">
<stop stop-color="#D6D6D6"/>
<stop offset="1" stop-color="#F4F4F4"/>
</linearGradient>
<linearGradient id="paint1_linear_581_513" x1="16.875" y1="4.16211" x2="27.3106" y2="12.1519" gradientUnits="userSpaceOnUse">
<stop stop-color="#D6D6D6"/>
<stop offset="1" stop-color="#F4F4F4"/>
</linearGradient>
</defs>
</svg>
